<?xml version="1.0" encoding="UTF-8"?>
<svg xmlns="http://www.w3.org/2000/svg" viewBox="0 0 1024 1024">
<defs>
 <radialGradient id="g1" cx="50%" cy="50%" r="70%">
  <stop offset="0%" stop-color="#0c8a3b"/>
  <stop offset="100%" stop-color="#01481f"/>
 </radialGradient>
 <linearGradient id="ring" x1="0%" y1="0%" x2="100%" y2="100%">
  <stop offset="0%" stop-color="#c4d63a"/>
  <stop offset="100%" stop-color="#91ad20"/>
 </linearGradient>
 <filter id="shadow">
  <feDropShadow dx="0" dy="6" stdDeviation="8" flood-opacity="0.35"/>
 </filter>
</defs>

<rect width="1024" height="1024" fill="#0b5f2d"/>
<circle cx="512" cy="512" r="420" fill="url(#g1)" stroke="url(#ring)" stroke-width="18"/>

<!-- Shopping cart -->
<g transform="translate(0,-20)" filter="url(#shadow)">
 <g stroke="#9fe8d8" stroke-width="10" fill="none" stroke-linecap="round" stroke-linejoin="round">
  <path d="M370 300 L620 300 L585 420 L375 415 Z"/>
  <path d="M405 300 L405 415"/>
  <path d="M455 300 L440 418"/>
  <path d="M505 300 L475 418"/>
  <path d="M555 300 L520 418"/>
  <path d="M370 350 L610 350"/>
  <path d="M372 390 L595 390"/>
  <path d="M620 300 Q640 250 665 215"/>
  <path d="M500 420 Q540 500 470 540"/>
  <path d="M565 420 Q610 500 540 540"/>
  <path d="M360 540 H555"/>
 </g>
 <circle cx="675" cy="205" r="16" fill="#ef3d37"/>
 <circle cx="405" cy="555" r="22" fill="#444"/>
 <circle cx="550" cy="555" r="22" fill="#444"/>
 <circle cx="405" cy="555" r="12" fill="#9fe8d8"/>
 <circle cx="550" cy="555" r="12" fill="#9fe8d8"/>
</g>

<text x="512" y="660" text-anchor="middle"
 font-family="Arial,Helvetica,sans-serif"
 font-size="120" font-weight="700" fill="white">SOKO</text>

<text x="512" y="790" text-anchor="middle"
 font-family="Arial,Helvetica,sans-serif"
 font-size="120" font-weight="700" fill="white">HURU</text>

<rect x="420" y="825" width="185" height="8" fill="#e0b72d"/>

<text x="512" y="885" text-anchor="middle"
 font-family="Arial,Helvetica,sans-serif"
 font-size="42" fill="white">Soko jipya.</text>

<text x="512" y="935" text-anchor="middle"
 font-family="Arial,Helvetica,sans-serif"
 font-size="42" fill="white">Teknolojia Mpya</text>
</svg>
